<?xml version="1.0" encoding="utf-8"?>
<!-- Generator: Adobe Illustrator 24.2.1, SVG Export Plug-In . SVG Version: 6.00 Build 0)  -->
<svg version="1.1" id="Vrstva_1" xmlns="http://www.w3.org/2000/svg" xmlns:xlink="http://www.w3.org/1999/xlink" x="0px" y="0px"
	 viewBox="0 0 80 80" style="enable-background:new 0 0 80 80;" xml:space="preserve">
<style type="text/css">
	.st0{clip-path:url(#SVGID_2_);fill:#999999;}
	.st1{clip-path:url(#SVGID_2_);}
	.st2{clip-path:url(#SVGID_4_);fill:#999999;}
	.st3{clip-path:url(#SVGID_6_);fill:#999999;}
	.st4{clip-path:url(#SVGID_2_);fill:#F0F0F0;}
	.st5{clip-path:url(#SVGID_8_);fill:#999999;}
	.st6{clip-path:url(#SVGID_10_);fill:#999999;}
	.st7{clip-path:url(#SVGID_12_);fill:#999999;}
	.st8{clip-path:url(#SVGID_14_);fill:#999999;}
	.st9{clip-path:url(#SVGID_16_);fill:#F0F0F0;}
	.st10{clip-path:url(#SVGID_16_);fill:#FFFFFF;}
	.st11{clip-path:url(#SVGID_16_);fill:none;stroke:#999999;stroke-width:1.364;stroke-miterlimit:22.926;}
	.st12{clip-path:url(#SVGID_16_);fill:#999999;}
	.st13{clip-path:url(#SVGID_18_);}
	.st14{clip-path:url(#SVGID_20_);fill:#F0F0F0;}
	.st15{clip-path:url(#SVGID_18_);fill:#F0F0F0;}
	
		.st16{clip-path:url(#SVGID_22_);fill:none;stroke:#999999;stroke-width:1.364;stroke-linecap:round;stroke-linejoin:round;stroke-miterlimit:22.926;}
	.st17{clip-path:url(#SVGID_24_);fill:#FFFFFF;}
	.st18{clip-path:url(#SVGID_24_);fill:none;stroke:#999999;stroke-width:1.364;stroke-miterlimit:22.926;}
	
		.st19{clip-path:url(#SVGID_24_);fill:none;stroke:#999999;stroke-width:1.364;stroke-linecap:round;stroke-linejoin:round;stroke-miterlimit:22.926;}
	.st20{clip-path:url(#SVGID_24_);fill:#F0F0F0;}
	
		.st21{clip-path:url(#SVGID_26_);fill:none;stroke:#999999;stroke-width:1.364;stroke-linecap:round;stroke-linejoin:round;stroke-miterlimit:22.926;}
	.st22{clip-path:url(#SVGID_26_);fill:#F0F0F0;}
	.st23{clip-path:url(#SVGID_26_);fill:#FFFFFF;}
	.st24{clip-path:url(#SVGID_26_);fill:none;stroke:#999999;stroke-width:1.364;stroke-miterlimit:22.926;}
	
		.st25{clip-path:url(#SVGID_28_);fill:none;stroke:#999999;stroke-width:1.364;stroke-linecap:round;stroke-linejoin:round;stroke-miterlimit:22.926;}
	.st26{clip-path:url(#SVGID_28_);fill:#FFFFFF;}
	.st27{clip-path:url(#SVGID_28_);fill:none;stroke:#999999;stroke-width:1.364;stroke-miterlimit:22.926;}
	
		.st28{clip-path:url(#SVGID_18_);fill:none;stroke:#999999;stroke-width:1.364;stroke-linecap:round;stroke-linejoin:round;stroke-miterlimit:22.926;}
	
		.st29{clip-path:url(#SVGID_30_);fill:none;stroke:#999999;stroke-width:1.364;stroke-linecap:round;stroke-linejoin:round;stroke-miterlimit:22.926;}
	.st30{clip-path:url(#SVGID_32_);}
	.st31{clip-path:url(#SVGID_34_);fill:#FFFFFF;}
	.st32{clip-path:url(#SVGID_36_);}
	.st33{clip-path:url(#SVGID_40_);fill:none;stroke:#024E30;stroke-width:2.369;}
	.st34{clip-path:url(#SVGID_42_);}
	.st35{clip-path:url(#SVGID_44_);fill:#0094D9;}
	.st36{clip-path:url(#SVGID_44_);fill:#F04024;}
	.st37{clip-path:url(#SVGID_42_);fill:#F04024;}
	.st38{clip-path:url(#SVGID_42_);fill:#0094D9;}
	.st39{clip-path:url(#SVGID_46_);fill:#59595C;}
	.st40{clip-path:url(#SVGID_42_);fill:#59595C;}
	.st41{clip-path:url(#SVGID_48_);fill:#59595C;}
	.st42{clip-path:url(#SVGID_50_);}
	.st43{clip-path:url(#SVGID_52_);fill:none;stroke:#8EC89A;stroke-width:1.5;stroke-miterlimit:10;}
	.st44{clip-path:url(#SVGID_54_);}
	.st45{clip-path:url(#SVGID_56_);fill:#FFFFFF;}
	.st46{clip-path:url(#SVGID_58_);}
	.st47{clip-path:url(#SVGID_60_);fill:#FFFFFF;}
	.st48{clip-path:url(#SVGID_62_);}
	.st49{clip-path:url(#SVGID_64_);fill:#FFFFFF;}
	.st50{clip-path:url(#SVGID_66_);}
	.st51{clip-path:url(#SVGID_68_);fill:#FFFFFF;}
	.st52{clip-path:url(#SVGID_70_);}
	.st53{clip-path:url(#SVGID_72_);}
	.st54{clip-path:url(#SVGID_76_);}
	.st55{clip-path:url(#SVGID_80_);}
	.st56{clip-path:url(#SVGID_82_);fill:none;stroke:#FFFFFF;stroke-width:0.723;}
	.st57{clip-path:url(#SVGID_80_);fill:none;stroke:#FFFFFF;stroke-width:0.723;}
	.st58{clip-path:url(#SVGID_84_);fill:none;stroke:#FFFFFF;stroke-width:0.723;}
	.st59{clip-path:url(#SVGID_86_);}
	.st60{clip-path:url(#SVGID_88_);fill:#FFFFFF;}
	.st61{clip-path:url(#SVGID_86_);fill:#999999;}
	.st62{clip-path:url(#SVGID_90_);}
	.st63{clip-path:url(#SVGID_92_);fill:#8EC89A;}
	.st64{clip-path:url(#SVGID_94_);}
	.st65{clip-path:url(#SVGID_96_);fill:none;stroke:#FFFFFF;stroke-width:1.7;stroke-miterlimit:10;}
	.st66{clip-path:url(#SVGID_96_);fill:none;stroke:#FFFFFF;stroke-width:1.7;}
	.st67{clip-path:url(#SVGID_98_);}
	
		.st68{clip-path:url(#SVGID_100_);fill:none;stroke:#009640;stroke-width:1.5;stroke-linecap:round;stroke-linejoin:round;stroke-miterlimit:10;}
	.st69{clip-path:url(#SVGID_102_);}
	.st70{clip-path:url(#SVGID_104_);fill:none;stroke:#009640;stroke-width:1.755;stroke-miterlimit:10;}
	.st71{clip-path:url(#SVGID_106_);}
	.st72{clip-path:url(#SVGID_108_);fill:#FFFFFF;}
	.st73{clip-path:url(#SVGID_108_);fill:none;stroke:#009640;stroke-width:1.258;}
	.st74{clip-path:url(#SVGID_106_);fill:#999999;}
	.st75{clip-path:url(#SVGID_110_);}
	.st76{clip-path:url(#SVGID_112_);fill:#009640;}
	.st77{clip-path:url(#SVGID_112_);fill:none;stroke:#FFFFFF;stroke-width:0.678;}
	.st78{clip-path:url(#SVGID_110_);fill:#FFFFFF;}
	.st79{clip-path:url(#SVGID_114_);}
	.st80{clip-path:url(#SVGID_116_);fill:#FFFFFF;}
	.st81{clip-path:url(#SVGID_116_);fill:none;stroke:#009640;}
	.st82{clip-path:url(#SVGID_116_);fill:#009640;}
	.st83{clip-path:url(#SVGID_116_);fill:none;stroke:#FFFFFF;stroke-width:0.678;}
	.st84{clip-path:url(#SVGID_114_);fill:#FFFFFF;}
	.st85{clip-path:url(#SVGID_118_);}
	.st86{clip-path:url(#SVGID_120_);fill:none;stroke:#009640;stroke-width:0.54;}
	.st87{clip-path:url(#SVGID_118_);fill:none;stroke:#009640;stroke-width:0.54;}
	.st88{clip-path:url(#SVGID_122_);fill:none;stroke:#C31246;stroke-width:0.54;}
	.st89{clip-path:url(#SVGID_124_);}
	.st90{clip-path:url(#SVGID_126_);fill:none;stroke:#009640;stroke-width:1.12;}
	.st91{clip-path:url(#SVGID_126_);fill:#009640;}
	.st92{clip-path:url(#SVGID_128_);}
	.st93{clip-path:url(#SVGID_130_);fill:none;stroke:#024E30;stroke-width:0.723;}
	.st94{clip-path:url(#SVGID_128_);fill:none;stroke:#024E30;stroke-width:0.723;}
	.st95{clip-path:url(#SVGID_132_);fill:none;stroke:#024E30;stroke-width:0.723;}
	.st96{clip-path:url(#SVGID_134_);}
	.st97{clip-path:url(#SVGID_136_);fill:#0094D9;}
	.st98{clip-path:url(#SVGID_138_);}
	.st99{clip-path:url(#SVGID_140_);fill:#009640;}
	.st100{clip-path:url(#SVGID_140_);fill:#FFFFFF;}
	.st101{clip-path:url(#SVGID_142_);}
	.st102{clip-path:url(#SVGID_144_);fill:#009640;}
	.st103{clip-path:url(#SVGID_144_);fill:#FFFFFF;}
	.st104{clip-path:url(#SVGID_146_);}
	.st105{clip-path:url(#SVGID_148_);fill:none;stroke:#FFFFFF;stroke-width:3.589;}
	.st106{clip-path:url(#SVGID_146_);fill:#FFFFFF;}
	.st107{clip-path:url(#SVGID_150_);}
	.st108{clip-path:url(#SVGID_152_);fill:#009640;}
	.st109{clip-path:url(#SVGID_154_);}
	.st110{clip-path:url(#SVGID_156_);fill:#0094D9;}
	.st111{clip-path:url(#SVGID_158_);}
	.st112{clip-path:url(#SVGID_160_);fill:#FFFFFF;}
	.st113{clip-path:url(#SVGID_160_);fill:none;stroke:#0094D9;}
	.st114{clip-path:url(#SVGID_162_);}
	.st115{clip-path:url(#SVGID_164_);fill:#0094D9;}
	.st116{clip-path:url(#SVGID_166_);fill:#FFFFFF;}
</style>
<g id="Kresba_18_1_">
	<g>
		<defs>
			<rect id="SVGID_89_" x="16.6" y="16.28" width="46.81" height="47.45"/>
		</defs>
		<clipPath id="SVGID_2_">
			<use xlink:href="#SVGID_89_"  style="overflow:visible;"/>
		</clipPath>
		<g class="st1">
			<defs>
				<rect id="SVGID_91_" x="16.6" y="16.27" width="46.81" height="47.45"/>
			</defs>
			<clipPath id="SVGID_4_">
				<use xlink:href="#SVGID_91_"  style="overflow:visible;"/>
			</clipPath>
			<path style="clip-path:url(#SVGID_4_);fill:#8EC89A;" d="M57.17,63.72H22.83c-1.77,0-3.21-1.44-3.21-3.21V41.28
				c0-0.48,0.39-0.88,0.88-0.88c0.48,0,0.88,0.39,0.88,0.88v19.24c0,0.8,0.65,1.46,1.46,1.46h34.34c0.8,0,1.46-0.65,1.46-1.46V41.28
				c0-0.48,0.39-0.88,0.88-0.88c0.48,0,0.88,0.39,0.88,0.88v19.24C60.38,62.29,58.94,63.72,57.17,63.72"/>
			<path style="clip-path:url(#SVGID_4_);fill:#8EC89A;" d="M27.35,53.08v0.06c0,1.51,1.23,2.74,2.74,2.74s2.74-1.23,2.74-2.74
				v-0.06H27.35z M30.08,57.62c-2.47,0-4.49-2.01-4.49-4.49V52.2c0-0.48,0.39-0.88,0.88-0.88h7.22c0.48,0,0.88,0.39,0.88,0.88v0.94
				C34.57,55.61,32.56,57.62,30.08,57.62"/>
			<path style="clip-path:url(#SVGID_4_);fill:#8EC89A;" d="M26.02,51.33h8.12v-4.35h-8.12V51.33z M35.02,53.08h-9.87
				c-0.48,0-0.88-0.39-0.88-0.88v-6.1c0-0.48,0.39-0.88,0.88-0.88h9.87c0.48,0,0.88,0.39,0.88,0.88v6.1
				C35.89,52.69,35.5,53.08,35.02,53.08"/>
			<path style="clip-path:url(#SVGID_4_);fill:#8EC89A;" d="M31.42,50.03h-2.67c-0.48,0-0.88-0.39-0.88-0.88
				c0-0.48,0.39-0.88,0.88-0.88h2.67c0.48,0,0.88,0.39,0.88,0.88C32.29,49.64,31.9,50.03,31.42,50.03"/>
			<path style="clip-path:url(#SVGID_4_);fill:#8EC89A;" d="M34.73,39.25h-9.29c-0.48,0-0.88-0.39-0.88-0.88
				c0-0.48,0.39-0.88,0.88-0.88h9.29c0.48,0,0.88,0.39,0.88,0.88C35.6,38.85,35.21,39.25,34.73,39.25"/>
			<path style="clip-path:url(#SVGID_4_);fill:#8EC89A;" d="M47.18,53.08v0.06c0,1.51,1.23,2.74,2.74,2.74s2.73-1.23,2.73-2.74
				v-0.06H47.18z M49.92,57.62c-2.47,0-4.49-2.01-4.49-4.49V52.2c0-0.48,0.39-0.88,0.88-0.88h7.22c0.48,0,0.88,0.39,0.88,0.88v0.94
				C54.4,55.61,52.39,57.62,49.92,57.62"/>
			<path style="clip-path:url(#SVGID_4_);fill:#8EC89A;" d="M45.86,51.33h8.12v-4.35h-8.12V51.33z M54.85,53.08h-9.87
				c-0.48,0-0.88-0.39-0.88-0.88v-6.1c0-0.48,0.39-0.88,0.88-0.88h9.87c0.48,0,0.88,0.39,0.88,0.88v6.1
				C55.73,52.69,55.34,53.08,54.85,53.08"/>
			<path style="clip-path:url(#SVGID_4_);fill:#8EC89A;" d="M51.25,50.03h-2.67c-0.48,0-0.88-0.39-0.88-0.88
				c0-0.48,0.39-0.88,0.88-0.88h2.67c0.48,0,0.88,0.39,0.88,0.88C52.13,49.64,51.74,50.03,51.25,50.03"/>
			<path style="clip-path:url(#SVGID_4_);fill:#8EC89A;" d="M54.56,39.25h-9.29c-0.48,0-0.88-0.39-0.88-0.88
				c0-0.48,0.39-0.88,0.88-0.88h9.29c0.48,0,0.88,0.39,0.88,0.88C55.44,38.85,55.04,39.25,54.56,39.25"/>
			<path style="clip-path:url(#SVGID_4_);fill:#8EC89A;" d="M27.35,45.23h5.47v-5.98h-5.47V45.23z M33.69,46.98h-7.22
				c-0.48,0-0.88-0.39-0.88-0.88v-7.73c0-0.48,0.39-0.88,0.88-0.88h7.22c0.48,0,0.88,0.39,0.88,0.88v7.73
				C34.57,46.58,34.17,46.98,33.69,46.98"/>
			<path style="clip-path:url(#SVGID_4_);fill:#8EC89A;" d="M47.18,45.23h5.47v-5.98h-5.47V45.23z M53.53,46.98h-7.22
				c-0.48,0-0.88-0.39-0.88-0.88v-7.73c0-0.48,0.39-0.88,0.88-0.88h7.22c0.48,0,0.88,0.39,0.88,0.88v7.73
				C54.4,46.58,54.01,46.98,53.53,46.98"/>
			<path style="clip-path:url(#SVGID_4_);fill:#8EC89A;" d="M27.35,45.23h5.47v-5.98h-5.47V45.23z M33.69,46.98h-7.22
				c-0.48,0-0.88-0.39-0.88-0.88v-7.73c0-0.48,0.39-0.88,0.88-0.88h7.22c0.48,0,0.88,0.39,0.88,0.88v7.73
				C34.57,46.58,34.17,46.98,33.69,46.98"/>
			<path style="clip-path:url(#SVGID_4_);fill:#8EC89A;" d="M47.18,45.23h5.47v-5.98h-5.47V45.23z M53.53,46.98h-7.22
				c-0.48,0-0.88-0.39-0.88-0.88v-7.73c0-0.48,0.39-0.88,0.88-0.88h7.22c0.48,0,0.88,0.39,0.88,0.88v7.73
				C54.4,46.58,54.01,46.98,53.53,46.98"/>
			<path style="clip-path:url(#SVGID_4_);fill:#8EC89A;" d="M54.4,41.07h3.25c1.13,0,2.04-0.92,2.04-2.04V27.51
				c0-0.16-0.13-0.29-0.29-0.29H20.6c-0.16,0-0.29,0.13-0.29,0.29v11.52c0,1.13,0.92,2.04,2.04,2.04h3.25v-2.7
				c0-0.48,0.39-0.88,0.88-0.88h7.22c0.48,0,0.88,0.39,0.88,0.88v2.7h10.87v-2.7c0-0.48,0.39-0.88,0.88-0.88h7.22
				c0.48,0,0.88,0.39,0.88,0.88V41.07z M57.65,42.82h-4.12c-0.48,0-0.88-0.39-0.88-0.88v-2.7h-5.47v2.7c0,0.48-0.39,0.88-0.88,0.88
				H33.69c-0.48,0-0.88-0.39-0.88-0.88v-2.7h-5.47v2.7c0,0.48-0.39,0.88-0.88,0.88h-4.12c-2.09,0-3.79-1.7-3.79-3.79V27.51
				c0-1.13,0.92-2.04,2.04-2.04h38.8c1.13,0,2.04,0.92,2.04,2.04v11.52C61.44,41.12,59.74,42.82,57.65,42.82"/>
			<path style="clip-path:url(#SVGID_4_);fill:#8EC89A;" d="M32.71,25.46h14.59v-3.57H32.71V25.46z M48.17,27.21H31.83
				c-0.48,0-0.88-0.39-0.88-0.88V21.6c0-0.8,0.65-1.46,1.46-1.46h15.17c0.8,0,1.46,0.65,1.46,1.46v4.74
				C49.04,26.82,48.65,27.21,48.17,27.21"/>
			<path style="clip-path:url(#SVGID_4_);fill:#8EC89A;" d="M28.77,25.46h22.45v-5.98c0-0.8-0.65-1.46-1.46-1.46H30.23
				c-0.8,0-1.46,0.65-1.46,1.46V25.46z M52.1,27.21H27.9c-0.48,0-0.88-0.39-0.88-0.88v-6.85c0-1.77,1.44-3.21,3.21-3.21h19.53
				c1.77,0,3.21,1.44,3.21,3.21v6.85C52.98,26.82,52.58,27.21,52.1,27.21"/>
			<path style="clip-path:url(#SVGID_4_);fill:#8EC89A;" d="M46.78,31.44H19.43c-0.48,0-0.88-0.39-0.88-0.88
				c0-0.48,0.39-0.88,0.88-0.88h27.34c0.48,0,0.88,0.39,0.88,0.88C47.65,31.05,47.26,31.44,46.78,31.44"/>
			<path style="clip-path:url(#SVGID_4_);fill:#8EC89A;" d="M49.11,31.44h-2.33c-0.48,0-0.88-0.39-0.88-0.88
				c0-0.48,0.39-0.88,0.88-0.88h2.33c0.48,0,0.88,0.39,0.88,0.88C49.99,31.05,49.59,31.44,49.11,31.44"/>
			<path style="clip-path:url(#SVGID_4_);fill:#8EC89A;" d="M55.19,31.44h-3.04c-0.48,0-0.88-0.39-0.88-0.88
				c0-0.48,0.39-0.88,0.88-0.88h3.04c0.48,0,0.88,0.39,0.88,0.88C56.07,31.05,55.67,31.44,55.19,31.44"/>
			<path style="clip-path:url(#SVGID_4_);fill:#8EC89A;" d="M60.56,31.44h-2.33c-0.48,0-0.88-0.39-0.88-0.88
				c0-0.48,0.39-0.88,0.88-0.88h2.33c0.48,0,0.88,0.39,0.88,0.88C61.44,31.05,61.05,31.44,60.56,31.44"/>
			<path style="clip-path:url(#SVGID_4_);fill:#8EC89A;" d="M62.53,63.72H17.47c-0.48,0-0.88-0.39-0.88-0.88
				c0-0.48,0.39-0.88,0.88-0.88h45.06c0.48,0,0.88,0.39,0.88,0.88C63.4,63.33,63.01,63.72,62.53,63.72"/>
		</g>
	</g>
</g>
</svg>
